<?xml version="1.0" encoding="utf-8"?>
<!-- Generator: Adobe Illustrator 16.0.0, SVG Export Plug-In . SVG Version: 6.00 Build 0)  -->
<!DOCTYPE svg PUBLIC "-//W3C//DTD SVG 1.1//EN" "http://www.w3.org/Graphics/SVG/1.1/DTD/svg11.dtd">
<svg version="1.1" id="Layer_1" xmlns="http://www.w3.org/2000/svg" xmlns:xlink="http://www.w3.org/1999/xlink" x="0px" y="0px"
	 width="308.276px" height="78.257px" viewBox="1.145 8.193 308.276 78.257" enable-background="new 1.145 8.193 308.276 78.257"
	 xml:space="preserve">
<g enable-background="new    ">
	<path d="M2.605,36.81V33.16h5.621v-5.986c0-5.986,2.189-9.781,8.029-9.781c1.314,0,2.482,0.072,3.65,0.291v4.016
		c-0.876-0.219-1.825-0.365-2.628-0.365c-4.526,0-4.672,3.723-4.672,7.154v4.672h7.3v3.649h-7.3v34.163h-4.38V36.81H2.605z"/>
	<path d="M27.133,24.911v-6.497h4.818v6.497H27.133z M27.352,70.973V33.16h4.38v37.813H27.352z"/>
	<path d="M47.499,70.973h-4.38V33.16h4.38v7.08h0.146c2.409-6.059,5.985-8.103,12.336-8.103v4.745
		c-9.855-0.219-12.483,7.08-12.483,15.549V70.973z"/>
	<path d="M68.596,53.088c-0.073,8.176,4.307,14.965,12.701,14.965c5.694,0,10.147-3.139,11.461-8.687h4.891
		c-2.189,7.153-6.716,12.628-16.352,12.628c-12.117,0-17.373-8.613-17.373-19.782c0-11.022,6.569-20.074,17.373-20.074
		c10.366,0,16.717,7.373,16.644,20.95H68.596z M93.269,49.439c0-7.373-4.088-13.358-11.972-13.358
		c-7.737,0-11.825,6.204-12.701,13.358H93.269z"/>
	<path d="M109.038,59.147c1.387,6.497,4.745,8.906,11.315,8.906c6.351,0,9.344-3.357,9.344-7.008
		c0-10.949-24.235-3.212-24.235-18.104c0-6.277,4.891-10.804,13.286-10.804c8.176,0,13.505,3.358,14.6,11.898h-4.453
		c-0.803-5.84-4.745-7.956-10.22-7.956c-5.548,0-8.541,2.627-8.541,6.496c0,10.293,24.235,3.869,24.235,18.396
		c0,7.228-6.497,11.022-15.403,11.022c-8.905,0-14.016-5.693-14.38-12.848H109.038z"/>
	<path d="M156.269,71.119c-1.022,0.219-2.92,0.875-5.037,0.875c-4.307,0-6.716-1.897-6.716-7.519V36.81h-5.329V33.16h5.329V22.649
		h4.38V33.16h7.08v3.649h-7.08v25.914c0,3.724,0.146,5.329,3.796,5.329c1.168,0,2.409-0.219,3.577-0.511V71.119z"/>
	<path d="M180.65,48.928c1.606-0.146,4.308-0.584,5.768-1.241s1.605-2.628,1.605-3.942c0-4.453-2.628-7.664-9.416-7.664
		c-6.06,0-10.221,1.971-11.023,8.54h-4.453c0.657-8.905,7.301-12.482,15.549-12.482c7.665,0,13.724,2.993,13.724,11.753v20.585
		c0,3.431,0.876,4.234,4.599,2.92v3.431c-0.656,0.22-2.189,0.73-3.431,0.73c-0.729,0-1.313-0.073-1.971-0.219
		c-2.92-0.438-3.431-2.993-3.504-5.621c-3.649,4.088-8.614,6.277-14.089,6.277c-6.643,0-12.629-3.576-12.629-10.876
		c0-6.351,4.381-10.22,13.213-11.388L180.65,48.928z M188.023,51.117c-3.723,1.533-7.519,1.825-11.314,2.117
		c-6.643,0.511-10.658,2.92-10.658,8.029c0,4.6,4.016,6.789,8.176,6.789c6.936,0,13.797-3.357,13.797-11.022V51.117z"/>
	<path d="M208.463,70.973h-4.38V33.16h4.38v7.08h0.146c2.409-6.059,5.985-8.103,12.337-8.103v4.745
		c-9.855-0.219-12.483,7.08-12.483,15.549V70.973z"/>
	<path d="M242.773,71.119c-1.022,0.219-2.92,0.875-5.037,0.875c-4.307,0-6.716-1.897-6.716-7.519V36.81h-5.329V33.16h5.329V22.649
		h4.38V33.16h7.08v3.649h-7.08v25.914c0,3.724,0.146,5.329,3.796,5.329c1.168,0,2.409-0.219,3.577-0.511V71.119z"/>
	<path d="M252.482,53.088c-0.073,8.176,4.307,14.965,12.701,14.965c5.694,0,10.146-3.139,11.461-8.687h4.891
		c-2.189,7.153-6.716,12.628-16.352,12.628c-12.117,0-17.373-8.613-17.373-19.782c0-11.022,6.569-20.074,17.373-20.074
		c10.366,0,16.717,7.373,16.644,20.95H252.482z M277.155,49.439c0-7.373-4.088-13.358-11.972-13.358
		c-7.737,0-11.825,6.204-12.701,13.358H277.155z"/>
	<path d="M294.967,70.973h-4.38V33.16h4.38v7.08h0.146c2.409-6.059,5.985-8.103,12.337-8.103v4.745
		c-9.855-0.219-12.483,7.08-12.483,15.549V70.973z"/>
</g>
</svg>
